<svg width="30" height="25" viewBox="0 0 30 25" fill="none" xmlns="http://www.w3.org/2000/svg">
<path d="M4.45801 18.335C4.87802 18.335 5.20801 18.665 5.20801 19.085V23.585C5.20792 24.0049 4.87796 24.335 4.45801 24.335H1.45801C1.03818 24.3348 0.7081 24.0048 0.708008 23.585C0.708008 23.165 1.03812 22.8351 1.45801 22.835H3.70801V22.085H2.95801C2.53821 22.0848 2.20812 21.7548 2.20801 21.335C2.20801 20.915 2.53814 20.5851 2.95801 20.585H3.70801V19.835H1.45801C1.03821 19.8348 0.708143 19.5048 0.708008 19.085C0.708008 18.665 1.03812 18.3351 1.45801 18.335H4.45801ZM27.709 19.835C28.5339 19.835 29.209 20.51 29.209 21.335C29.2089 22.1599 28.5339 22.8349 27.709 22.835H9.70898C8.88402 22.835 8.20907 22.1599 8.20898 21.335C8.20898 20.5099 8.88397 19.835 9.70898 19.835H27.709ZM4.45801 9.33496C4.87802 9.33496 5.20801 9.66495 5.20801 10.085V10.4141C5.20801 10.5791 5.14832 10.7595 5.02832 10.8945L2.50781 13.835H4.45801C4.87802 13.835 5.20801 14.165 5.20801 14.585C5.20783 15.0048 4.8779 15.335 4.45801 15.335H1.45801C1.03824 15.3348 0.708188 15.0047 0.708008 14.585V14.2549C0.708008 14.0899 0.76867 13.9094 0.888672 13.7744L3.4082 10.835H1.45801C1.03827 10.8348 0.708232 10.5047 0.708008 10.085C0.708008 9.66504 1.03812 9.3351 1.45801 9.33496H4.45801ZM27.709 10.835C28.5339 10.835 29.209 11.51 29.209 12.335C29.2088 13.1598 28.5338 13.8349 27.709 13.835H9.70898C8.88408 13.835 8.20916 13.1598 8.20898 12.335C8.20898 11.5099 8.88397 10.835 9.70898 10.835H27.709ZM2.95801 0.333984C3.37789 0.333984 3.70781 0.664158 3.70801 1.08398V5.58398C3.70801 6.00399 3.37802 6.33398 2.95801 6.33398C2.53814 6.33383 2.20801 6.0039 2.20801 5.58398V1.83398H1.45801C1.03812 1.83385 0.708008 1.50391 0.708008 1.08398C0.708207 0.664244 1.03825 0.33412 1.45801 0.333984H2.95801ZM27.709 1.83398C28.5338 1.83405 29.2087 2.50922 29.209 3.33398C29.209 4.15896 28.5339 4.8349 27.709 4.83496H9.70898C8.88397 4.83496 8.20898 4.159 8.20898 3.33398C8.20925 2.50919 8.88413 1.83398 9.70898 1.83398H27.709Z" fill="#EF5337"/>
</svg>
