<svg width="24" height="24" viewBox="0 0 24 24" fill="none" xmlns="http://www.w3.org/2000/svg">
<path d="M1.71387 15.4297C2.65666 15.4297 3.4286 16.2008 3.42871 17.1436V20.5723H6.85742C7.80008 20.5725 8.57129 21.3444 8.57129 22.2871C8.57105 23.2296 7.79993 24.0007 6.85742 24.001H1.71387C0.771236 24.0009 0.000243159 23.2297 0 22.2871V17.1436C0.000111123 16.2008 0.771156 15.4298 1.71387 15.4297ZM22.2861 15.4297C23.2287 15.4299 23.9999 16.2009 24 17.1436V22.2871C23.9998 23.2296 23.2286 24.0007 22.2861 24.001H17.1426C16.1999 24.0009 15.429 23.2297 15.4287 22.2871C15.4287 21.3443 16.1998 20.5724 17.1426 20.5723H20.5713V17.1436C20.5714 16.2008 21.3433 15.4297 22.2861 15.4297ZM6.85742 0.000976562C7.80002 0.00122831 8.5712 0.772204 8.57129 1.71484C8.57129 2.65756 7.80008 3.42944 6.85742 3.42969H3.42871V6.85742C3.42871 7.80029 2.65673 8.57227 1.71387 8.57227C0.771088 8.57216 0 7.80022 0 6.85742V1.71484C8.68671e-05 0.772114 0.771141 0.00108008 1.71387 0.000976562H6.85742ZM22.2861 0.000976562C23.2287 0.00122701 23.9999 0.772204 24 1.71484V6.85742C24 7.80013 23.2288 8.57202 22.2861 8.57227C21.3433 8.57227 20.5713 7.80029 20.5713 6.85742V3.42969H17.1426C16.1998 3.42958 15.4287 2.65765 15.4287 1.71484C15.4288 0.772114 16.1999 0.00108041 17.1426 0.000976562H22.2861Z" fill="#EF5337"/>
</svg>
