<svg width="24" height="24" viewBox="0 0 24 24" fill="none" xmlns="http://www.w3.org/2000/svg">
<path d="M1.71387 15.4287C2.65657 15.4287 3.42845 16.1999 3.42871 17.1426V20.5713H6.85742C7.80011 20.5715 8.57129 21.3434 8.57129 22.2861C8.5712 23.2288 7.80005 23.9998 6.85742 24H1.71387C0.771173 23.9999 9.33681e-05 23.2288 0 22.2861V17.1426C0.000260889 16.2 0.771275 15.4288 1.71387 15.4287ZM22.2861 15.4287C23.2287 15.4289 23.9997 16.2 24 17.1426V22.2861C23.9999 23.2288 23.2288 23.9998 22.2861 24H17.1426C16.1999 23.9998 15.4288 23.2288 15.4287 22.2861C15.4287 21.3434 16.1998 20.5715 17.1426 20.5713H20.5713V17.1426C20.5715 16.1999 21.3434 15.4287 22.2861 15.4287ZM6.85742 0C7.79996 0.000251703 8.5711 0.771311 8.57129 1.71387C8.57129 2.65658 7.80008 3.42846 6.85742 3.42871H3.42871V6.85742C3.42854 7.80015 2.65663 8.57129 1.71387 8.57129C0.771191 8.57119 0.000168531 7.80008 0 6.85742V1.71387C0.000186733 0.77122 0.771202 0.000103502 1.71387 0H6.85742ZM22.2861 0C23.2287 0.00019319 23.9998 0.771317 24 1.71387V6.85742C23.9999 7.80007 23.2288 8.5711 22.2861 8.57129C21.3433 8.57129 20.5714 7.80019 20.5713 6.85742V3.42871H17.1426C16.1998 3.42855 15.4287 2.65663 15.4287 1.71387C15.4289 0.771297 16.2 0.000161018 17.1426 0H22.2861Z" fill="#363D47"/>
</svg>
