<svg width="69" height="39" viewBox="0 0 69 39" fill="none" xmlns="http://www.w3.org/2000/svg">
<g clip-path="url(#clip0_358_517)">
<path d="M1.33325 16.212C1.33325 21.0003 5.21158 24.8787 9.99992 24.8787C14.7882 24.8787 18.6666 21.0003 18.6666 16.212V11.8787H1.33325V16.212Z" fill="#363D47" stroke="white" stroke-linejoin="round"/>
<path d="M11.0833 1.12122V9.71205H18.6666C18.6666 5.29205 15.3624 1.65205 11.0833 1.12122Z" fill="#363D47" stroke="white" stroke-linejoin="round"/>
<path d="M8.91659 1.12122C4.63742 1.65205 1.33325 5.29205 1.33325 9.71205H8.91659V1.12122Z" fill="#EF5337" stroke="white" stroke-linejoin="round"/>
<rect x="8" y="2" width="4" height="9" rx="2" fill="#363D47" stroke="white"/>
<path d="M50.3333 16.212C50.3333 21.0003 54.2116 24.8787 58.9999 24.8787C63.7882 24.8787 67.6666 21.0003 67.6666 16.212V11.8787H50.3333V16.212Z" fill="#363D47" stroke="white" stroke-linejoin="round"/>
<path d="M60.0833 1.12122V9.71205H67.6666C67.6666 5.29205 64.3624 1.65205 60.0833 1.12122Z" fill="#EF5337" fill-opacity="0.9" stroke="white" stroke-linejoin="round"/>
<path d="M57.9166 1.12122C53.6374 1.65205 50.3333 5.29205 50.3333 9.71205H57.9166V1.12122Z" fill="#363D47" stroke="white" stroke-linejoin="round"/>
<rect x="57.5" y="2.5" width="3" height="8" rx="1.5" fill="#363D47" stroke="white"/>
<path d="M26.3333 16.212C26.3333 21.0003 30.2116 24.8787 34.9999 24.8787C39.7882 24.8787 43.6666 21.0003 43.6666 16.212V11.8787H26.3333V16.212Z" fill="#363D47" stroke="white" stroke-linejoin="round"/>
<path d="M36.0833 1.12122V9.71205H43.6666C43.6666 5.29205 40.3624 1.65205 36.0833 1.12122Z" fill="#363D47" stroke="white" stroke-linejoin="round"/>
<path d="M33.9166 1.12122C29.6374 1.65205 26.3333 5.29205 26.3333 9.71205H33.9166V1.12122Z" fill="#363D47" stroke="white" stroke-linejoin="round"/>
<rect x="33" y="2" width="4" height="9" rx="2" fill="#EF5337" fill-opacity="0.9" stroke="white"/>
<path d="M30.352 34.088C30.352 34.728 30.232 35.264 29.992 35.696C29.7573 36.128 29.4187 36.4533 28.976 36.672C28.5333 36.8907 27.9973 37 27.368 37H25.776V31.288H27.536C28.112 31.288 28.6107 31.3947 29.032 31.608C29.4533 31.8213 29.7787 32.136 30.008 32.552C30.2373 32.9627 30.352 33.4747 30.352 34.088ZM29.592 34.112C29.592 33.6053 29.5067 33.1893 29.336 32.864C29.1707 32.5387 28.9253 32.2987 28.6 32.144C28.28 31.984 27.8907 31.904 27.432 31.904H26.496V36.384H27.272C28.0453 36.384 28.624 36.1947 29.008 35.816C29.3973 35.432 29.592 34.864 29.592 34.112ZM35.2517 34.848C35.2517 35.2053 35.2038 35.5227 35.1078 35.8C35.0171 36.072 34.8838 36.304 34.7078 36.496C34.5371 36.688 34.3264 36.8347 34.0758 36.936C33.8304 37.032 33.5558 37.08 33.2518 37.08C32.9691 37.08 32.7078 37.032 32.4678 36.936C32.2278 36.8347 32.0198 36.688 31.8438 36.496C31.6678 36.304 31.5291 36.072 31.4278 35.8C31.3318 35.5227 31.2838 35.2053 31.2838 34.848C31.2838 34.3733 31.3638 33.9733 31.5238 33.648C31.6838 33.3173 31.9131 33.0667 32.2118 32.896C32.5104 32.72 32.8651 32.632 33.2758 32.632C33.6651 32.632 34.0064 32.72 34.2998 32.896C34.5984 33.0667 34.8304 33.3173 34.9958 33.648C35.1664 33.9733 35.2517 34.3733 35.2517 34.848ZM32.0118 34.848C32.0118 35.184 32.0544 35.4773 32.1398 35.728C32.2304 35.9733 32.3691 36.1627 32.5558 36.296C32.7424 36.4293 32.9798 36.496 33.2678 36.496C33.5558 36.496 33.7931 36.4293 33.9798 36.296C34.1664 36.1627 34.3024 35.9733 34.3878 35.728C34.4784 35.4773 34.5238 35.184 34.5238 34.848C34.5238 34.5067 34.4784 34.216 34.3878 33.976C34.2971 33.736 34.1584 33.552 33.9718 33.424C33.7904 33.2907 33.5531 33.224 33.2598 33.224C32.8224 33.224 32.5051 33.368 32.3078 33.656C32.1104 33.944 32.0118 34.3413 32.0118 34.848ZM37.0715 37H36.3675V30.92H37.0715V37ZM39.134 37H38.43V30.92H39.134V37ZM39.8205 32.712H40.5725L41.5005 35.152C41.5538 35.296 41.6018 35.4347 41.6445 35.568C41.6925 35.7013 41.7352 35.832 41.7725 35.96C41.8098 36.0827 41.8392 36.2027 41.8605 36.32H41.8925C41.9245 36.1867 41.9752 36.0133 42.0445 35.8C42.1138 35.5813 42.1858 35.3627 42.2605 35.144L43.1325 32.712H43.8925L42.0445 37.592C41.9432 37.8587 41.8232 38.0907 41.6845 38.288C41.5512 38.4907 41.3858 38.6453 41.1885 38.752C40.9965 38.864 40.7618 38.92 40.4845 38.92C40.3565 38.92 40.2445 38.912 40.1485 38.896C40.0525 38.8853 39.9698 38.872 39.9005 38.856V38.296C39.9592 38.3067 40.0285 38.3173 40.1085 38.328C40.1938 38.3387 40.2818 38.344 40.3725 38.344C40.5378 38.344 40.6792 38.312 40.7965 38.248C40.9192 38.1893 41.0232 38.1013 41.1085 37.984C41.1938 37.872 41.2658 37.7387 41.3245 37.584L41.5485 37.016L39.8205 32.712Z" fill="#363D47"/>
<path d="M54.288 31.288C55.0347 31.288 55.5787 31.4347 55.92 31.728C56.2613 32.0213 56.432 32.4347 56.432 32.968C56.432 33.2027 56.392 33.4293 56.312 33.648C56.2373 33.8613 56.112 34.0533 55.936 34.224C55.76 34.3947 55.5253 34.5307 55.232 34.632C54.9387 34.728 54.5787 34.776 54.152 34.776H53.496V37H52.776V31.288H54.288ZM54.224 31.904H53.496V34.16H54.072C54.4347 34.16 54.736 34.1227 54.976 34.048C55.216 33.968 55.3947 33.8427 55.512 33.672C55.6293 33.5013 55.688 33.2773 55.688 33C55.688 32.632 55.5707 32.3573 55.336 32.176C55.1013 31.9947 54.7307 31.904 54.224 31.904ZM59.1478 32.64C59.6704 32.64 60.0571 32.7547 60.3078 32.984C60.5584 33.2133 60.6838 33.5787 60.6838 34.08V37H60.1718L60.0358 36.392H60.0038C59.8811 36.5467 59.7531 36.6773 59.6198 36.784C59.4918 36.8853 59.3424 36.96 59.1718 37.008C59.0064 37.056 58.8038 37.08 58.5638 37.08C58.3078 37.08 58.0758 37.0347 57.8678 36.944C57.6651 36.8533 57.5051 36.7147 57.3878 36.528C57.2704 36.336 57.2118 36.096 57.2118 35.808C57.2118 35.3813 57.3798 35.0533 57.7158 34.824C58.0518 34.5893 58.5691 34.4613 59.2678 34.44L59.9958 34.416V34.16C59.9958 33.8027 59.9184 33.5547 59.7638 33.416C59.6091 33.2773 59.3904 33.208 59.1078 33.208C58.8838 33.208 58.6704 33.2427 58.4678 33.312C58.2651 33.376 58.0758 33.4507 57.8997 33.536L57.6838 33.008C57.8704 32.9067 58.0918 32.8213 58.3478 32.752C58.6038 32.6773 58.8704 32.64 59.1478 32.64ZM59.3558 34.928C58.8224 34.9493 58.4518 35.0347 58.2438 35.184C58.0411 35.3333 57.9398 35.544 57.9398 35.816C57.9398 36.056 58.0118 36.232 58.1558 36.344C58.3051 36.456 58.4944 36.512 58.7238 36.512C59.0864 36.512 59.3878 36.4133 59.6278 36.216C59.8678 36.0133 59.9878 35.704 59.9878 35.288V34.904L59.3558 34.928ZM64.0721 32.632C64.5841 32.632 64.9708 32.7573 65.2321 33.008C65.4935 33.2533 65.6241 33.6533 65.6241 34.208V37H64.9281V34.256C64.9281 33.9093 64.8508 33.6507 64.6961 33.48C64.5415 33.3093 64.2988 33.224 63.9681 33.224C63.4935 33.224 63.1655 33.3573 62.9841 33.624C62.8028 33.8907 62.7121 34.2747 62.7121 34.776V37H62.0081V32.712H62.5761L62.6801 33.296H62.7201C62.8161 33.1467 62.9335 33.024 63.0721 32.928C63.2161 32.8267 63.3735 32.752 63.5441 32.704C63.7148 32.656 63.8908 32.632 64.0721 32.632Z" fill="#363D47"/>
<path d="M5.76 34.136C5.76 34.5787 5.704 34.9813 5.592 35.344C5.48 35.7013 5.312 36.0107 5.088 36.272C4.86933 36.5333 4.59467 36.7333 4.264 36.872C3.93867 37.0107 3.56 37.08 3.128 37.08C2.68 37.08 2.29067 37.0107 1.96 36.872C1.62933 36.728 1.35467 36.528 1.136 36.272C0.917333 36.0107 0.754667 35.6987 0.648 35.336C0.541333 34.9733 0.488 34.5707 0.488 34.128C0.488 33.5413 0.584 33.0293 0.776 32.592C0.968 32.1547 1.25867 31.8133 1.648 31.568C2.04267 31.3227 2.53867 31.2 3.136 31.2C3.70667 31.2 4.18667 31.3227 4.576 31.568C4.96533 31.808 5.25867 32.1493 5.456 32.592C5.65867 33.0293 5.76 33.544 5.76 34.136ZM1.248 34.136C1.248 34.616 1.31467 35.0293 1.448 35.376C1.58133 35.7227 1.78667 35.9893 2.064 36.176C2.34667 36.3627 2.70133 36.456 3.128 36.456C3.56 36.456 3.912 36.3627 4.184 36.176C4.46133 35.9893 4.66667 35.7227 4.8 35.376C4.93333 35.0293 5 34.616 5 34.136C5 33.416 4.85067 32.8533 4.552 32.448C4.25333 32.0373 3.78133 31.832 3.136 31.832C2.704 31.832 2.34667 31.9253 2.064 32.112C1.78667 32.2933 1.58133 32.5573 1.448 32.904C1.31467 33.2453 1.248 33.656 1.248 34.136ZM8.93 32.632C9.01 32.632 9.09533 32.6373 9.186 32.648C9.282 32.6533 9.36467 32.664 9.434 32.68L9.346 33.328C9.27667 33.312 9.19933 33.2987 9.114 33.288C9.034 33.2773 8.95667 33.272 8.882 33.272C8.71667 33.272 8.55933 33.3067 8.41 33.376C8.26067 33.4453 8.12733 33.544 8.01 33.672C7.89267 33.7947 7.79933 33.944 7.73 34.12C7.666 34.296 7.634 34.4933 7.634 34.712V37H6.93V32.712H7.506L7.586 33.496H7.618C7.70867 33.336 7.818 33.192 7.946 33.064C8.074 32.9307 8.22067 32.8267 8.386 32.752C8.55133 32.672 8.73267 32.632 8.93 32.632ZM10.9387 32.4C10.9387 32.5813 10.9334 32.752 10.9227 32.912C10.9174 33.0667 10.9094 33.1893 10.8987 33.28H10.9387C11.0614 33.0987 11.2294 32.9467 11.4427 32.824C11.656 32.7013 11.9307 32.64 12.2667 32.64C12.8 32.64 13.2267 32.8267 13.5467 33.2C13.872 33.568 14.0347 34.12 14.0347 34.856C14.0347 35.3467 13.96 35.7573 13.8107 36.088C13.6667 36.4187 13.4614 36.6667 13.1947 36.832C12.928 36.9973 12.6187 37.08 12.2667 37.08C11.9307 37.08 11.656 37.0187 11.4427 36.896C11.2294 36.7733 11.0614 36.6267 10.9387 36.456H10.8827L10.7387 37H10.2347V30.92H10.9387V32.4ZM12.1467 33.224C11.8427 33.224 11.6027 33.2827 11.4267 33.4C11.2507 33.512 11.1254 33.688 11.0507 33.928C10.976 34.1627 10.9387 34.464 10.9387 34.832V34.864C10.9387 35.392 11.024 35.7973 11.1947 36.08C11.3707 36.3573 11.6934 36.496 12.1627 36.496C12.5467 36.496 12.832 36.3547 13.0187 36.072C13.2107 35.7893 13.3067 35.3813 13.3067 34.848C13.3067 34.3093 13.2107 33.904 13.0187 33.632C12.832 33.36 12.5414 33.224 12.1467 33.224ZM15.8606 32.712V37H15.1566V32.712H15.8606ZM15.5166 31.104C15.6232 31.104 15.7166 31.1413 15.7966 31.216C15.8819 31.2853 15.9246 31.3973 15.9246 31.552C15.9246 31.7013 15.8819 31.8133 15.7966 31.888C15.7166 31.9627 15.6232 32 15.5166 32C15.3992 32 15.3006 31.9627 15.2206 31.888C15.1406 31.8133 15.1006 31.7013 15.1006 31.552C15.1006 31.3973 15.1406 31.2853 15.2206 31.216C15.3006 31.1413 15.3992 31.104 15.5166 31.104ZM18.6511 36.504C18.7577 36.504 18.8671 36.496 18.9791 36.48C19.0911 36.4587 19.1817 36.4373 19.2511 36.416V36.952C19.1764 36.9893 19.0697 37.0187 18.9311 37.04C18.7924 37.0667 18.6591 37.08 18.5311 37.08C18.3071 37.08 18.0991 37.0427 17.9071 36.968C17.7204 36.888 17.5684 36.752 17.4511 36.56C17.3337 36.368 17.2751 36.0987 17.2751 35.752V33.256H16.6671V32.92L17.2831 32.64L17.5631 31.728H17.9791V32.712H19.2191V33.256H17.9791V35.736C17.9791 35.9973 18.0404 36.192 18.1631 36.32C18.2911 36.4427 18.4537 36.504 18.6511 36.504Z" fill="#363D47"/>
</g>
<defs>
<clipPath id="clip0_358_517">
<rect width="69" height="39" fill="white"/>
</clipPath>
</defs>
</svg>
