<svg width="25" height="24" viewBox="0 0 25 24" fill="none" xmlns="http://www.w3.org/2000/svg">
<path d="M0.873047 0.40466C1.42747 -0.135843 2.30125 -0.135883 2.8418 0.40466L24.0615 21.639C24.6021 22.1796 24.6021 23.0536 24.0615 23.5941C23.521 24.1342 22.6479 24.1344 22.1074 23.5941L20.25 21.7367C19.3214 22.485 18.2816 23.0948 17.1729 23.5521C16.2581 23.9261 15.2471 23.2882 15.2471 22.2904C15.2472 21.75 15.5519 21.2238 16.0508 21.016C16.8547 20.6972 17.5894 20.2671 18.2686 19.7543L12.4746 13.9603V19.7406C12.4745 20.974 10.9777 21.5978 10.1045 20.725L5.54395 16.1644H1.38574C0.623656 16.1643 0.000166865 15.5408 0 14.7787V9.23376C0.000209268 8.47171 0.623682 7.84819 1.38574 7.84802H5.54395L5.94629 7.432L0.873047 2.35974C0.332484 1.81918 0.332484 0.945222 0.873047 0.40466ZM15.2471 1.55505C15.2473 0.682081 16.1199 0.0450156 16.9375 0.363644C21.6223 2.15165 24.9492 6.69766 24.9492 12.0062C24.9492 13.9328 24.5057 15.7488 23.7295 17.3705L21.6084 15.2494C21.9687 14.2376 22.1768 13.1427 22.1768 12.0062C22.1767 7.93125 19.6539 4.43795 16.0918 2.99646C15.5931 2.80229 15.2471 2.34523 15.2471 1.81872V1.55505ZM15.2471 6.42028C17.2983 7.446 18.7119 9.553 18.7119 12.0062C18.7119 12.1171 18.6984 12.2283 18.6846 12.3392L15.2471 8.90173V6.42028ZM10.1045 3.28747C10.9777 2.41467 12.4746 3.02473 12.4746 4.25818V6.12927L9.86914 3.5238L10.1045 3.28747Z" fill="#EF5337"/>
</svg>
