<svg width="25" height="24" viewBox="0 0 25 24" fill="none" xmlns="http://www.w3.org/2000/svg">
<path d="M0.873047 0.405422C1.42747 -0.135141 2.30123 -0.135141 2.8418 0.405422L24.0615 21.6398C24.6021 22.1804 24.6021 23.0533 24.0615 23.5939C23.521 24.1344 22.648 24.1345 22.1074 23.5939L20.25 21.7375C19.3214 22.4858 18.2815 23.0956 17.1729 23.5529C16.2582 23.9268 15.2471 23.289 15.2471 22.2912C15.2472 21.7507 15.5519 21.2236 16.0508 21.0158C16.8546 20.697 17.5895 20.2678 18.2686 19.755L12.4746 13.9611V19.7414C12.4744 20.9748 10.9776 21.5979 10.1045 20.7248L5.54395 16.1652H1.38574C0.623705 16.165 0.000247805 15.5415 0 14.7794V9.23452C0.000128322 8.4724 0.623632 7.84895 1.38574 7.84878H5.54395L5.94629 7.43277L0.873047 2.35952C0.332767 1.81894 0.332588 0.945892 0.873047 0.405422ZM15.2471 1.55581C15.2472 0.682749 16.1198 0.0457142 16.9375 0.364406C21.6224 2.15242 24.9492 6.69838 24.9492 12.007C24.9492 13.9336 24.5057 15.7496 23.7295 17.3712L21.6084 15.2501C21.9688 14.2384 22.1768 13.1435 22.1768 12.007C22.1768 7.93197 19.654 4.43872 16.0918 2.99722C15.5931 2.80307 15.2471 2.34598 15.2471 1.81948V1.55581ZM15.2471 6.42105C17.2983 7.44678 18.7119 9.55376 18.7119 12.007C18.7119 12.1178 18.6984 12.2291 18.6846 12.34L15.2471 8.90249V6.42105ZM10.1045 3.28823C10.9777 2.41532 12.4746 3.02544 12.4746 4.25894V6.13003L9.86914 3.52456L10.1045 3.28823Z" fill="#363D47"/>
</svg>
