<svg width="25" height="25" viewBox="0 0 25 25" fill="none" xmlns="http://www.w3.org/2000/svg">
<path d="M1.36621 4.96582C2.0262 4.96582 2.56641 5.50603 2.56641 6.16602V20.5654C2.56643 21.2254 3.10662 21.7656 3.7666 21.7656H18.166C18.826 21.7656 19.3662 22.3058 19.3662 22.9658C19.366 23.6256 18.8259 24.165 18.166 24.165H2.56641C1.24659 24.1649 0.167131 23.0854 0.166992 21.7656V6.16602C0.166992 5.50616 0.706401 4.96604 1.36621 4.96582ZM21.7666 0.166016C23.0864 0.166154 24.1659 1.24562 24.166 2.56543V16.9658C24.1658 18.2855 23.0863 19.3651 21.7666 19.3652H7.36621C6.04653 19.365 4.96703 18.2855 4.9668 16.9658V2.56543C4.9669 1.24565 6.04645 0.166208 7.36621 0.166016H21.7666ZM7.9668 6.16504C7.30689 6.16504 6.76674 6.70536 6.7666 7.36523V12.4658C6.76682 12.9576 7.17513 13.3652 7.66699 13.3652C8.15866 13.365 8.56619 12.9575 8.56641 12.4658V10.9658H9.7666C10.7626 10.9658 11.5664 10.161 11.5664 9.16504V7.96582C11.5664 6.96986 10.7626 6.16508 9.7666 6.16504H7.9668ZM13.3662 6.16504C13.0303 6.16515 12.7666 6.4297 12.7666 6.76562V12.7656C12.7667 13.1014 13.0304 13.3651 13.3662 13.3652H15.7666C16.7625 13.3651 17.5664 12.5613 17.5664 11.5654V7.96582C17.5664 6.9699 16.7625 6.16515 15.7666 6.16504H13.3662ZM19.9658 6.16504C19.3061 6.16529 18.7667 6.70552 18.7666 7.36523V12.4658C18.7668 12.9575 19.1743 13.3651 19.666 13.3652C20.1579 13.3652 20.5662 12.9576 20.5664 12.4658V10.9658H21.4658C21.9578 10.9658 22.3662 10.5574 22.3662 10.0654C22.3662 9.57345 21.9578 9.16504 21.4658 9.16504H20.5664V7.96582H21.4658C21.9578 7.96582 22.3662 7.55742 22.3662 7.06543C22.3662 6.57347 21.9578 6.16504 21.4658 6.16504H19.9658ZM15.7666 7.96582V11.5654H14.5664V7.96582H15.7666ZM9.7666 9.16504H8.56641V7.96582H9.7666V9.16504Z" fill="#EF5337"/>
</svg>
