<svg width="25" height="25" viewBox="0 0 25 25" fill="none" xmlns="http://www.w3.org/2000/svg">
<path d="M1.36621 4.9668C2.0262 4.9668 2.56641 5.507 2.56641 6.16699V20.5664C2.56643 21.2264 3.10662 21.7666 3.7666 21.7666H18.166C18.826 21.7666 19.3662 22.3068 19.3662 22.9668C19.366 23.6266 18.8259 24.166 18.166 24.166H2.56641C1.24659 24.1659 0.167131 23.0864 0.166992 21.7666V6.16699C0.166992 5.50713 0.706401 4.96701 1.36621 4.9668ZM21.7666 0.166992C23.0864 0.167131 24.1659 1.24659 24.166 2.56641V16.9668C24.1658 18.2865 23.0863 19.3661 21.7666 19.3662H7.36621C6.04653 19.366 4.96703 18.2865 4.9668 16.9668V2.56641C4.9669 1.24663 6.04645 0.167184 7.36621 0.166992H21.7666ZM7.9668 6.16602C7.30689 6.16602 6.76674 6.70634 6.7666 7.36621V12.4668C6.76682 12.9586 7.17513 13.3662 7.66699 13.3662C8.15866 13.366 8.56619 12.9585 8.56641 12.4668V10.9668H9.7666C10.7626 10.9668 11.5664 10.162 11.5664 9.16602V7.9668C11.5664 6.97084 10.7626 6.16606 9.7666 6.16602H7.9668ZM13.3662 6.16602C13.0303 6.16613 12.7666 6.43068 12.7666 6.7666V12.7666C12.7667 13.1024 13.0304 13.3661 13.3662 13.3662H15.7666C16.7625 13.3661 17.5664 12.5623 17.5664 11.5664V7.9668C17.5664 6.97088 16.7625 6.16613 15.7666 6.16602H13.3662ZM19.9658 6.16602C19.3061 6.16627 18.7667 6.70649 18.7666 7.36621V12.4668C18.7668 12.9585 19.1743 13.3661 19.666 13.3662C20.1579 13.3662 20.5662 12.9586 20.5664 12.4668V10.9668H21.4658C21.9578 10.9668 22.3662 10.5584 22.3662 10.0664C22.3662 9.57443 21.9578 9.16602 21.4658 9.16602H20.5664V7.9668H21.4658C21.9578 7.9668 22.3662 7.5584 22.3662 7.06641C22.3662 6.57445 21.9578 6.16602 21.4658 6.16602H19.9658ZM15.7666 7.9668V11.5664H14.5664V7.9668H15.7666ZM9.7666 9.16602H8.56641V7.9668H9.7666V9.16602Z" fill="#363D47"/>
</svg>
