<svg width="24" height="24" viewBox="0 0 24 24" fill="none" xmlns="http://www.w3.org/2000/svg">
<path d="M19.7538 8.07227C19.9754 7.85091 20.3487 7.85085 20.5702 8.08398L23.8231 11.3369C24.1962 11.6984 23.9396 12.328 23.4149 12.3281H21.328C21.328 17.4818 17.1535 21.6561 11.9999 21.6562C10.7873 21.6562 9.62055 21.4236 8.55948 20.9922C7.77843 20.6773 7.56839 19.6737 8.16299 19.0791C8.47779 18.7643 8.95615 18.6367 9.37588 18.8115C10.1804 19.1497 11.0788 19.3242 11.9999 19.3242C15.8593 19.3241 18.996 16.1875 18.996 12.3281H16.9081C16.3837 12.3278 16.1279 11.6982 16.5009 11.3252L19.7538 8.07227ZM11.9999 3C13.2125 3.00004 14.3784 3.23365 15.4394 3.66504C16.2205 3.97989 16.4305 4.9825 15.8358 5.57715C15.521 5.89196 15.0427 6.0206 14.623 5.8457C13.8185 5.5076 12.921 5.33207 11.9999 5.33203C8.14047 5.33203 5.0039 8.4687 5.00381 12.3281H7.09073C7.61538 12.3281 7.87196 12.9579 7.51065 13.3193L4.25772 16.5723C4.02452 16.8055 3.6628 16.8055 3.4296 16.5723L0.176666 13.3193C-0.196458 12.9579 0.0601643 12.3281 0.584869 12.3281H2.67178C2.67187 7.17443 6.8462 3 11.9999 3Z" fill="#EF5337"/>
</svg>
