<svg width="24" height="24" viewBox="0 0 24 24" fill="none" xmlns="http://www.w3.org/2000/svg">
<path d="M19.7538 8.07324C19.9754 7.85165 20.3487 7.85171 20.5702 8.08496L23.8231 11.3389C24.1962 11.7004 23.9396 12.3301 23.4149 12.3301H21.328C21.328 17.4849 17.1536 21.6602 11.9999 21.6602C10.7873 21.6601 9.62146 21.4266 8.56045 20.9951C7.77929 20.6803 7.56948 19.6778 8.16397 19.083C8.47879 18.7681 8.9571 18.6395 9.37686 18.8145C10.1813 19.1525 11.0789 19.3271 11.9999 19.3271C15.8594 19.3271 18.9959 16.1903 18.996 12.3301H16.9091C16.3844 12.3301 16.1278 11.7003 16.5009 11.3271L19.7538 8.07324ZM11.9999 3C13.2125 3 14.3783 3.23356 15.4394 3.66504C16.2206 3.97992 16.4305 4.98236 15.8358 5.57715C15.521 5.89204 15.0427 6.02064 14.623 5.8457C13.8185 5.5076 12.9209 5.33203 11.9999 5.33203C8.14042 5.33203 5.00381 8.46979 5.00381 12.3301H7.09073C7.61543 12.3301 7.87211 12.9598 7.51065 13.3213L4.25772 16.5752C4.02452 16.8084 3.6628 16.8084 3.42959 16.5752L0.176665 13.3213C-0.196457 12.9598 0.0601649 12.3301 0.584868 12.3301H2.67178C2.67178 7.17525 6.84616 3 11.9999 3Z" fill="#363D47"/>
</svg>
