<svg width="24" height="24" viewBox="0 0 24 24" fill="none" xmlns="http://www.w3.org/2000/svg">
<path d="M11.7998 0C13.3598 0 14.6796 1.00841 15.1836 2.40039H20.2002C21.5199 2.40062 22.5995 3.48005 22.5996 4.7998V21.5996C22.5996 22.9195 21.52 23.9998 20.2002 24H3.40039C2.08041 24 1 22.9196 1 21.5996V4.7998C1.00011 3.47991 2.08047 2.40039 3.40039 2.40039H8.41602C8.92 1.00843 10.2399 2.74722e-05 11.7998 0ZM7 16.7998C6.34001 16.7998 5.7998 17.34 5.7998 18C5.79991 18.6599 6.34007 19.2002 7 19.2002H13C13.6599 19.2001 14.2001 18.6599 14.2002 18C14.2002 17.34 13.6599 16.7999 13 16.7998H7ZM7 12C6.34001 12 5.7998 12.5402 5.7998 13.2002C5.79994 13.8601 6.34009 14.4004 7 14.4004H16.5996C17.2595 14.4004 17.7997 13.8601 17.7998 13.2002C17.7998 12.5402 17.2596 12 16.5996 12H7ZM7 7.2002C6.34001 7.2002 5.7998 7.7404 5.7998 8.40039C5.80004 9.06019 6.34015 9.59961 7 9.59961H16.5996C17.2595 9.59961 17.7996 9.06019 17.7998 8.40039C17.7998 7.7404 17.2596 7.2002 16.5996 7.2002H7ZM11.7998 2.40039C11.1399 2.40041 10.5998 2.9398 10.5996 3.59961C10.5996 4.25959 11.1398 4.79979 11.7998 4.7998C12.4598 4.7998 13 4.2596 13 3.59961C12.9998 2.93979 12.4597 2.40039 11.7998 2.40039Z" fill="#EF5337"/>
</svg>
