<svg width="24" height="24" viewBox="0 0 24 24" fill="none" xmlns="http://www.w3.org/2000/svg">
<path d="M11.7998 0.00012207C13.3596 0.00012207 14.6795 1.0078 15.1836 2.39954H20.2002C21.5201 2.39964 22.5996 3.48001 22.5996 4.79993V21.5997C22.5996 22.9197 21.5201 24 20.2002 24.0001H3.40039C2.08039 24.0001 1 22.9197 1 21.5997V4.79993C1.00003 3.47995 2.08041 2.39954 3.40039 2.39954H8.41602C8.9201 1.0078 10.24 0.000205919 11.7998 0.00012207ZM7 16.7999C6.34002 16.7999 5.7998 17.3401 5.7998 18.0001C5.79991 18.66 6.34008 19.2003 7 19.2003H13C13.6599 19.2003 14.2001 18.66 14.2002 18.0001C14.2002 17.3401 13.66 16.7999 13 16.7999H7ZM7 12.0001C6.34002 12.0001 5.7998 12.5403 5.7998 13.2003C5.79997 13.8602 6.34012 14.3995 7 14.3995H16.5996C17.2595 14.3995 17.7996 13.8602 17.7998 13.2003C17.7998 12.5403 17.2596 12.0001 16.5996 12.0001H7ZM7 7.20032C6.34016 7.20034 5.80004 7.73975 5.7998 8.39954C5.7998 9.05952 6.34002 9.59971 7 9.59973H16.5996C17.2596 9.59973 17.7998 9.05954 17.7998 8.39954C17.7996 7.73974 17.2595 7.20032 16.5996 7.20032H7ZM11.7998 2.39954C11.1399 2.39962 10.5997 2.93988 10.5996 3.59973C10.5996 4.25968 11.1399 4.79984 11.7998 4.79993C12.4598 4.79993 13 4.25973 13 3.59973C12.9999 2.93983 12.4597 2.39954 11.7998 2.39954Z" fill="#363D47"/>
</svg>
