<svg width="26" height="24" viewBox="0 0 26 24" fill="none" xmlns="http://www.w3.org/2000/svg">
<path d="M15.6055 1.29164C15.6057 0.398122 16.4986 -0.239581 17.3213 0.0865663C22.1304 1.91659 25.5351 6.55507 25.5352 12.0026C25.5352 17.4501 22.1304 22.0895 17.3213 23.9196C16.4987 24.2313 15.6056 23.607 15.6055 22.7135V22.4293C15.6056 21.8904 15.9454 21.4219 16.4561 21.2233C20.1161 19.7621 22.6982 16.1733 22.6982 12.0026C22.6982 7.83183 20.1161 4.24306 16.4561 2.78188C15.9596 2.58328 15.6055 2.11485 15.6055 1.57582V1.29164ZM10.3418 3.06508C11.2355 2.17146 12.7676 2.81035 12.7676 4.07289V19.9186C12.7676 21.1812 11.2355 21.8192 10.3418 20.9254L5.6748 16.2584H1.41895C0.638699 16.2584 0 15.6197 0 14.8395V9.16567C0 8.38542 0.638699 7.74672 1.41895 7.74672H5.6748L10.3418 3.06508ZM15.6055 6.28579C17.7048 7.33566 19.1514 9.4918 19.1514 12.0026C19.1513 14.5134 17.7049 16.6701 15.6055 17.7057V6.28579Z" fill="#363D47"/>
</svg>
