<svg width="26" height="24" viewBox="0 0 26 24" fill="none" xmlns="http://www.w3.org/2000/svg">
<path d="M15.6055 1.29285C15.6055 0.399233 16.4986 -0.239192 17.3213 0.0867991C22.1304 1.91683 25.5352 6.55625 25.5352 12.0038C25.535 17.4512 22.1304 22.0898 17.3213 23.9198C16.4985 24.2317 15.6055 23.6074 15.6055 22.7138V22.4305C15.6055 21.8915 15.9454 21.4231 16.4561 21.2245C20.116 19.7633 22.6981 16.1744 22.6982 12.0038C22.6982 7.83302 20.1161 4.2433 16.4561 2.78211C15.9598 2.58351 15.6057 2.11583 15.6055 1.57703V1.29285ZM10.3418 3.06629C11.2355 2.1726 12.7674 2.81069 12.7676 4.07313V19.9198C12.7673 21.1821 11.2354 21.8203 10.3418 20.9266L5.6748 16.2597H1.41895C0.638699 16.2597 0 15.621 0 14.8407V9.1659C0.000176017 8.3858 0.638806 7.74793 1.41895 7.74793H5.6748L10.3418 3.06629ZM15.6055 6.28602C17.7049 7.33585 19.1514 9.49291 19.1514 12.0038C19.1512 14.5144 17.7047 16.6703 15.6055 17.7059V6.28602Z" fill="#EF5337"/>
</svg>
